<?xml version="1.0" encoding="utf-8"?>
<!-- Generator: Adobe Illustrator 26.0.0, SVG Export Plug-In . SVG Version: 6.00 Build 0)  -->
<svg version="1.1" id="Layer_1" xmlns="http://www.w3.org/2000/svg" xmlns:xlink="http://www.w3.org/1999/xlink" x="0px" y="0px"
	 viewBox="0 0 512 512" style="enable-background:new 0 0 512 512;" xml:space="preserve">
<style type="text/css">
	.st0{fill:#E9E8E8;}
</style>
<path class="st0" d="M497.9,202.3l-74.7-128c-19.1-32.6-54.4-52.9-92.1-52.9H180.3c-37.8,0-73.1,20.3-92.1,52.9l-74.7,128
	c-19.3,33.1-19.3,74.3,0,107.5l74.7,128c19.1,32.6,54.3,52.9,92.1,52.9h150.8c37.8,0,73.1-20.3,92.1-52.9l74.7-128
	C517.2,276.6,517.2,235.4,497.9,202.3L497.9,202.3z M461,288.3l-74.6,128C375,435.8,353.8,448,331.1,448H180.3
	c-22.7,0-43.9-12.2-55.3-31.7l-74.7-128c-11.6-19.9-11.6-44.6,0-64.5l74.7-128C136.4,76.2,157.6,64,180.3,64h150.8
	c22.7,0,43.9,12.2,55.3,31.8l74.7,128C472.6,243.7,472.6,268.4,461,288.3z M362.7,256c0,11.8-9.5,21.3-21.3,21.3h-64v64
	c0,11.8-9.5,21.3-21.3,21.3c-11.8,0-21.3-9.5-21.3-21.3v-64h-64c-11.8,0-21.3-9.6-21.3-21.3s9.5-21.3,21.3-21.3h64v-64
	c0-11.8,9.5-21.3,21.3-21.3c11.8,0,21.3,9.6,21.3,21.3v64h64C353.1,234.7,362.7,244.2,362.7,256z"/>
</svg>
