<?xml version="1.0" encoding="utf-8"?>
<!-- Generator: Adobe Illustrator 26.0.0, SVG Export Plug-In . SVG Version: 6.00 Build 0)  -->
<svg version="1.1" id="Layer_1" xmlns="http://www.w3.org/2000/svg" xmlns:xlink="http://www.w3.org/1999/xlink" x="0px" y="0px"
	 viewBox="0 0 24 24" style="enable-background:new 0 0 24 24;" xml:space="preserve">
<style type="text/css">
	.st0{fill:#20262E;}
</style>
<path class="st0" d="M8,12c-3.3,0-6-2.7-6-6s2.7-6,6-6s6,2.7,6,6S11.3,12,8,12z M22.5,18c0-0.5-0.1-0.9-0.2-1.3l1.4-0.8l-1-1.7
	L21.3,15c-0.6-0.7-1.4-1.1-2.3-1.3V12h-2v1.6c-0.9,0.2-1.7,0.7-2.3,1.3l-1.4-0.8l-1,1.7l1.4,0.8c-0.1,0.4-0.2,0.9-0.2,1.3
	s0.1,0.9,0.2,1.3l-1.4,0.8l1,1.7l1.4-0.8c0.6,0.7,1.4,1.1,2.3,1.3V24h2v-1.6c0.9-0.2,1.7-0.7,2.3-1.3l1.4,0.8l1-1.7l-1.4-0.8
	C22.4,18.9,22.5,18.5,22.5,18z M18,19.5c-0.8,0-1.5-0.7-1.5-1.5s0.7-1.5,1.5-1.5s1.5,0.7,1.5,1.5S18.8,19.5,18,19.5z M10,18
	c0-1.5,0.4-2.8,1.1-4H4.5C2,14,0,16,0,18.5V24h12.7C11.1,22.5,10,20.4,10,18z"/>
</svg>
