<svg id="Layer_1" data-name="Layer 1" xmlns="http://www.w3.org/2000/svg" viewBox="0 0 512 512"><defs><style>.cls-1{fill:#2c2c3b;}</style></defs><path class="cls-1" d="M256,362.67a85.34,85.34,0,1,1,85.33-85.34A85.33,85.33,0,0,1,256,362.67ZM384,448a64,64,0,0,0-64-64H192a64,64,0,0,0-64,64v64H384Zm0-277.33a85.34,85.34,0,1,1,85.33-85.34A85.33,85.33,0,0,1,384,170.67Zm-256,0a85.34,85.34,0,1,1,85.33-85.34A85.33,85.33,0,0,1,128,170.67Zm0,106.66A127.3,127.3,0,0,1,160.79,192H64A64,64,0,0,0,0,256v64H135.45A127.39,127.39,0,0,1,128,277.33ZM376.55,320H512V256a64,64,0,0,0-64-64H351.21a127,127,0,0,1,25.34,128Z"/></svg>