<?xml version="1.0" encoding="utf-8"?>
<!-- Generator: Adobe Illustrator 26.0.0, SVG Export Plug-In . SVG Version: 6.00 Build 0)  -->
<svg version="1.1" id="Layer_1" xmlns="http://www.w3.org/2000/svg" xmlns:xlink="http://www.w3.org/1999/xlink" x="0px" y="0px"
	 viewBox="0 0 512 512" style="enable-background:new 0 0 512 512;" xml:space="preserve">
<style type="text/css">
	.st0{fill:#E2CFEA;}
</style>
<path class="st0" d="M256,362.7c-47.1,0-85.3-38.2-85.3-85.3S208.9,192,256,192s85.3,38.2,85.3,85.3S303.1,362.7,256,362.7z
	 M384,448c0-35.3-28.7-64-64-64H192c-35.3,0-64,28.7-64,64v64h256V448z M384,170.7c-47.1,0-85.3-38.2-85.3-85.3S336.9,0,384,0
	s85.3,38.2,85.3,85.3S431.1,170.7,384,170.7z M128,170.7c-47.1,0-85.3-38.2-85.3-85.3S80.9,0,128,0s85.3,38.2,85.3,85.3
	S175.1,170.7,128,170.7z M128,277.3c0-31.5,11.7-61.9,32.8-85.3H64c-35.3,0-64,28.7-64,64v64h135.4C130.5,306.3,128,291.9,128,277.3
	z M376.6,320H512v-64c0-35.3-28.7-64-64-64h-96.8C382.6,226.7,392.4,275.9,376.6,320L376.6,320z"/>
</svg>
