<?xml version="1.0" encoding="utf-8"?>
<!-- Generator: Adobe Illustrator 26.0.0, SVG Export Plug-In . SVG Version: 6.00 Build 0)  -->
<svg version="1.1" id="Layer_1" xmlns="http://www.w3.org/2000/svg" xmlns:xlink="http://www.w3.org/1999/xlink" x="0px" y="0px"
	 viewBox="0 0 512 512" style="enable-background:new 0 0 512 512;" xml:space="preserve">
<style type="text/css">
	.st0{fill:#E9E8E8;}
</style>
<g id="_01_align_center">
	<path class="st0" d="M469.3,85.3H362.7V42.7C362.7,19.1,343.6,0,320,0H192c-23.6,0-42.7,19.1-42.7,42.7v42.7H42.7V128h42.7v320
		c0,35.3,28.7,64,64,64h213.3c35.3,0,64-28.7,64-64V128h42.7V85.3z M192,42.7h128v42.7H192V42.7z M384,448
		c0,11.8-9.6,21.3-21.3,21.3H149.3c-11.8,0-21.3-9.6-21.3-21.3V128h256V448z"/>
	<rect x="192" y="213.3" class="st0" width="42.7" height="170.7"/>
	<rect x="277.3" y="213.3" class="st0" width="42.7" height="170.7"/>
</g>
</svg>
