<?xml version="1.0" encoding="utf-8"?>
<!-- Generator: Adobe Illustrator 26.0.0, SVG Export Plug-In . SVG Version: 6.00 Build 0)  -->
<svg version="1.1" id="Layer_1" xmlns="http://www.w3.org/2000/svg" xmlns:xlink="http://www.w3.org/1999/xlink" x="0px" y="0px"
	 viewBox="0 0 24 24" style="enable-background:new 0 0 24 24;" xml:space="preserve">
<style type="text/css">
	.st0{fill:#E2CFEA;}
</style>
<path class="st0" d="M17,12c-3.3,0-6-2.7-6-6s2.7-6,6-6s6,2.7,6,6S20.3,12,17,12z M1.7,7c0-0.1,0-0.1-0.1-0.2
	c-0.5,1.9-1.1,4.8-1.7,7C1.3,12.7,3.1,12,4.9,12C3.2,10.9,2,9.1,1.7,7L1.7,7z M7.5,4.5c1-0.5,1.5-1,2.4-2.2c0.3-0.6,0.7-1.2,1.2-1.7
	C10.3,0.2,9.4,0,8.4,0C5.6,0,3.1,1.8,2.2,4.6c0,0.1-0.1,0.2-0.1,0.4h2.1C5.4,5,6.6,4.9,7.5,4.5z M9,6C8.8,6.1,8.6,6.2,8.4,6.3
	C7.2,6.9,5.9,7,4.5,7c0,0-0.5,0-0.8,0c0.4,2.3,2.3,4,4.7,4c0.7,0,1.4-0.2,2-0.5C9.5,9.3,9,7.7,9,6C9,6,9,6,9,6z M20.7,14.2L17,18.5
	l-3.8-4.3c-1.9,0.5-3.2,2.3-3.2,4.3V24h14v-5.5C24,16.5,22.6,14.7,20.7,14.2z M4.1,14l-0.3,0C1.7,14.4,0,16.3,0,18.5V24h8v-5.5
	L4.1,14L4.1,14z"/>
</svg>
