<?xml version="1.0" encoding="utf-8"?>
<!-- Generator: Adobe Illustrator 26.0.0, SVG Export Plug-In . SVG Version: 6.00 Build 0)  -->
<svg version="1.1" id="Layer_1" xmlns="http://www.w3.org/2000/svg" xmlns:xlink="http://www.w3.org/1999/xlink" x="0px" y="0px"
	 viewBox="0 0 512 512" style="enable-background:new 0 0 512 512;" xml:space="preserve">
<style type="text/css">
	.st0{fill:#E9E8E8;}
</style>
<path class="st0" d="M512,256c0,141.4-114.6,256-256,256S0,397.4,0,256S114.6,0,256,0S512,114.6,512,256z M315.1,295.4
	c0-32.7-26.4-59.1-59.1-59.1s-59.1,26.4-59.1,59.1v39.4c0,32.7,26.4,59.1,59.1,59.1s59.1-26.4,59.1-59.1V295.4z M315.1,137.8
	c0-32.7-26.4-59.1-59.1-59.1s-59.1,26.4-59.1,59.1s26.4,59.1,59.1,59.1S315.1,170.5,315.1,137.8z"/>
</svg>
