<?xml version="1.0" encoding="utf-8"?>
<!-- Generator: Adobe Illustrator 26.0.0, SVG Export Plug-In . SVG Version: 6.00 Build 0)  -->
<svg version="1.1" id="Capa_1" xmlns="http://www.w3.org/2000/svg" xmlns:xlink="http://www.w3.org/1999/xlink" x="0px" y="0px"
	 viewBox="0 0 512 512" style="enable-background:new 0 0 512 512;" xml:space="preserve">
<style type="text/css">
	.st0{fill:#E9E8E8;}
</style>
<g>
	<path class="st0" d="M65.8,227.9c15.4-105,113.1-177.6,218.1-162.1c35.8,5.3,69.4,20.6,96.9,44.1l-24.8,24.8
		c-8.3,8.3-8.3,21.8,0,30.1c4,4,9.4,6.2,15,6.2h97.5c11.7,0,21.3-9.5,21.3-21.3V52.2c0-11.7-9.5-21.3-21.3-21.3
		c-5.6,0-11,2.2-15,6.2l-27.6,27.6C320.5-29.1,158.9-19.9,65,85.5c-33.3,37.3-54.9,83.6-62.1,133.1c-2.9,17.5,9.1,34.1,26.6,36.9
		c1.6,0.3,3.2,0.4,4.8,0.4C50.3,255.8,63.8,243.8,65.8,227.9z"/>
	<path class="st0" d="M477.7,256c-16.1,0.2-29.5,12.1-31.6,28.1c-15.4,105-113.1,177.6-218.1,162.1c-35.8-5.3-69.4-20.6-96.9-44.1
		l24.8-24.8c8.3-8.3,8.3-21.8,0-30.1c-4-4-9.4-6.2-15-6.2H43.4c-11.7,0-21.3,9.5-21.3,21.3v97.5c0,11.7,9.5,21.3,21.3,21.3
		c5.6,0,11-2.2,15-6.2l27.6-27.6c105.4,94,266.9,84.7,360.9-20.7c33.3-37.3,54.9-83.6,62.1-133.1c2.9-17.5-9-34.1-26.6-37
		C481,256.1,479.4,256,477.7,256z"/>
</g>
</svg>
