<?xml version="1.0" encoding="utf-8"?>
<!-- Generator: Adobe Illustrator 26.0.0, SVG Export Plug-In . SVG Version: 6.00 Build 0)  -->
<svg version="1.1" id="Capa_1" xmlns="http://www.w3.org/2000/svg" xmlns:xlink="http://www.w3.org/1999/xlink" x="0px" y="0px"
	 viewBox="0 0 512 512" style="enable-background:new 0 0 512 512;" xml:space="preserve">
<style type="text/css">
	.st0{fill:#E9E8E8;}
</style>
<g>
	<circle class="st0" cx="256" cy="298.7" r="42.7"/>
	<path class="st0" d="M480.8,87.9l-56.7-56.7c-5.7-5.6-12-10.5-18.7-14.7V64c-0.1,58.9-47.8,106.6-106.7,106.7h-85.3
		c-58.9-0.1-106.6-47.8-106.7-106.7V0C47.8,0.1,0.1,47.8,0,106.7v298.7C0.1,464.2,47.8,511.9,106.7,512h298.7
		c58.9-0.1,106.6-47.8,106.7-106.7v-242C512.1,135,500.8,107.9,480.8,87.9z M256,384c-47.1,0-85.3-38.2-85.3-85.3
		s38.2-85.3,85.3-85.3s85.3,38.2,85.3,85.3S303.1,384,256,384z"/>
	<path class="st0" d="M213.3,128h85.3c35.3,0,64-28.7,64-64V1.4c-4.6-0.8-9.3-1.2-14-1.4H149.3v64C149.3,99.3,178,128,213.3,128z"/>
</g>
</svg>
