<?xml version="1.0" encoding="utf-8"?>
<!-- Generator: Adobe Illustrator 26.0.0, SVG Export Plug-In . SVG Version: 6.00 Build 0)  -->
<svg version="1.1" id="Layer_1" xmlns="http://www.w3.org/2000/svg" xmlns:xlink="http://www.w3.org/1999/xlink" x="0px" y="0px"
	 viewBox="0 0 512 512" style="enable-background:new 0 0 512 512;" xml:space="preserve">
<style type="text/css">
	.st0{fill:#2C2C3B;}
</style>
<path class="st0" d="M426.7,74.7v32H512v64h-85.3v42.7H512v64h-85.3V320H512v64h-85.3v128h-64V74.7c0-41.2,33.4-74.7,74.7-74.7H512
	v64h-74.7C431.4,64,426.7,68.8,426.7,74.7z M341.3,410.7c0.2,55.8-44.8,101.2-100.6,101.4c-26.1,0.1-51.1-9.9-70-27.8
	c-40.4,38.4-104.4,36.8-142.8-3.6c-38.4-40.4-36.8-104.4,3.6-142.8c7.1-6.7,15.1-12.4,23.8-16.8l78.9-142.9l-44.7-81
	C72.9,67.4,64.2,34,64,0h64c0.1,23.2,6.1,45.9,17.5,66.1l25.2,45.6l25.2-45.6c11.4-20.2,17.4-43,17.5-66.1h64
	c-0.2,34-8.9,67.4-25.5,97.1L207.2,178l78.9,142.9C319.9,338.1,341.2,372.8,341.3,410.7z M170.7,244.3l-38.8,70.4
	c14.4,4.5,27.7,12.1,38.8,22.4c11.1-10.3,24.3-18.1,38.8-22.6L170.7,244.3z M138.7,410.7c0-20.6-16.7-37.3-37.3-37.3
	S64,390,64,410.7c0,20.6,16.7,37.3,37.3,37.3C121.9,448,138.6,431.3,138.7,410.7z M277.3,410.7c0-20.6-16.7-37.3-37.3-37.3
	c-20.6,0-37.3,16.7-37.3,37.3c0,20.6,16.7,37.3,37.3,37.3C260.6,448,277.3,431.3,277.3,410.7z"/>
</svg>
