<?xml version="1.0" encoding="utf-8"?>
<!-- Generator: Adobe Illustrator 26.0.0, SVG Export Plug-In . SVG Version: 6.00 Build 0)  -->
<svg version="1.1" id="Layer_1" xmlns="http://www.w3.org/2000/svg" xmlns:xlink="http://www.w3.org/1999/xlink" x="0px" y="0px"
	 viewBox="0 0 512 512" style="enable-background:new 0 0 512 512;" xml:space="preserve">
<style type="text/css">
	.st0{fill:#E9E8E8;}
</style>
<path class="st0" d="M164.3,320.1c-12.5,12.5-32.8,12.5-45.2,0L18.3,219.3c-24.4-24.4-24.4-64,0-88.4L119.1,30.1
	c13.1-11.9,33.3-10.9,45.2,2.2c11.1,12.2,11.1,30.9,0,43.1l-69,67.6h303.2c62.6,0.1,113.4,50.8,113.5,113.5v142.5
	c-0.1,62.6-50.8,113.4-113.5,113.5H113.5c-17.7,0-32-14.3-32-32s14.3-32,32-32h285.1c27.3,0,49.4-22.1,49.5-49.5V256.4
	c0-27.3-22.2-49.5-49.5-49.5h-302l67.8,68C176.8,287.4,176.8,307.7,164.3,320.1z"/>
</svg>
